<svg xmlns="http://www.w3.org/2000/svg" xmlns:xlink="http://www.w3.org/1999/xlink" version="1.1" x="0px" y="0px" viewBox="0 0 100 100" enable-background="new 0 0 100 100" xml:space="preserve"><path d="M50,35.827c-6.509,0-11.785,5.275-11.785,11.784S44.918,64.173,50,64.173S61.784,54.12,61.784,47.611  S56.509,35.827,50,35.827z M47.288,52.939c-0.57,0.565-2.969,0.525-4.466-0.983c-1.495-1.508-1.465-3.969-0.949-4.479  c0.515-0.511,2.97-0.524,4.465,0.984C47.834,49.969,47.856,52.375,47.288,52.939z M52.672,52.917  c-0.564-0.57-0.525-2.97,0.983-4.465c1.509-1.496,3.97-1.466,4.481-0.95c0.51,0.515,0.524,2.97-0.985,4.465  C55.644,53.463,53.237,53.485,52.672,52.917z"></path></svg>